<mxfile host="app.diagrams.net" agent="Mozilla/5.0 (Macintosh; Intel Mac OS X 10_15_7) AppleWebKit/537.36 (KHTML, like Gecko) Chrome/136.0.0.0 Safari/537.36" version="27.1.1">
  <diagram name="Page-1" id="_nkyQkz3HhZpHypguE1t">
    <mxGraphModel dx="781" dy="468" grid="1" gridSize="10" guides="1" tooltips="1" connect="1" arrows="1" fold="1" page="1" pageScale="1" pageWidth="850" pageHeight="1100" math="0" shadow="0">
      <root>
        <mxCell id="0" />
        <mxCell id="1" parent="0" />
        <mxCell id="Z1D3lEvSjEPsLY8ttZLi-6" value="" style="rounded=1;whiteSpace=wrap;html=1;dashed=1;" parent="1" vertex="1">
          <mxGeometry x="441.25" y="134.13" width="305" height="116.25" as="geometry" />
        </mxCell>
        <mxCell id="hbiY11onmtQi5FBCh3kt-1" style="edgeStyle=orthogonalEdgeStyle;rounded=0;orthogonalLoop=1;jettySize=auto;html=1;entryX=0;entryY=0.5;entryDx=0;entryDy=0;" parent="1" source="hbiY11onmtQi5FBCh3kt-2" target="hbiY11onmtQi5FBCh3kt-4" edge="1">
          <mxGeometry relative="1" as="geometry" />
        </mxCell>
        <mxCell id="hbiY11onmtQi5FBCh3kt-2" value="Data Collection&lt;br&gt;(.txt/.json)" style="rounded=1;whiteSpace=wrap;html=1;" parent="1" vertex="1">
          <mxGeometry x="110" y="251.69" width="100" height="60" as="geometry" />
        </mxCell>
        <mxCell id="Z1D3lEvSjEPsLY8ttZLi-7" style="edgeStyle=orthogonalEdgeStyle;rounded=0;orthogonalLoop=1;jettySize=auto;html=1;entryX=0;entryY=0.5;entryDx=0;entryDy=0;" parent="1" source="hbiY11onmtQi5FBCh3kt-4" target="Z1D3lEvSjEPsLY8ttZLi-6" edge="1">
          <mxGeometry relative="1" as="geometry">
            <Array as="points">
              <mxPoint x="400" y="280" />
              <mxPoint x="400" y="192" />
            </Array>
          </mxGeometry>
        </mxCell>
        <mxCell id="Z1D3lEvSjEPsLY8ttZLi-20" value="chunk-i" style="edgeLabel;html=1;align=center;verticalAlign=middle;resizable=0;points=[];" parent="Z1D3lEvSjEPsLY8ttZLi-7" vertex="1" connectable="0">
          <mxGeometry x="0.0226" y="-2" relative="1" as="geometry">
            <mxPoint y="-1" as="offset" />
          </mxGeometry>
        </mxCell>
        <mxCell id="Z1D3lEvSjEPsLY8ttZLi-18" style="edgeStyle=orthogonalEdgeStyle;rounded=0;orthogonalLoop=1;jettySize=auto;html=1;entryX=0;entryY=0.5;entryDx=0;entryDy=0;" parent="1" edge="1">
          <mxGeometry relative="1" as="geometry">
            <mxPoint x="360" y="281.4" as="sourcePoint" />
            <mxPoint x="498.05999999999995" y="358.125" as="targetPoint" />
            <Array as="points">
              <mxPoint x="400" y="281" />
              <mxPoint x="400" y="358" />
            </Array>
          </mxGeometry>
        </mxCell>
        <mxCell id="Z1D3lEvSjEPsLY8ttZLi-21" value="chunk-i" style="edgeLabel;html=1;align=center;verticalAlign=middle;resizable=0;points=[];" parent="Z1D3lEvSjEPsLY8ttZLi-18" vertex="1" connectable="0">
          <mxGeometry x="-0.3146" y="1" relative="1" as="geometry">
            <mxPoint y="6" as="offset" />
          </mxGeometry>
        </mxCell>
        <mxCell id="hbiY11onmtQi5FBCh3kt-4" value="Chunking" style="rounded=1;whiteSpace=wrap;html=1;" parent="1" vertex="1">
          <mxGeometry x="260" y="251.38" width="100" height="60" as="geometry" />
        </mxCell>
        <mxCell id="Z1D3lEvSjEPsLY8ttZLi-1" value="" style="rounded=1;whiteSpace=wrap;html=1;" parent="1" vertex="1">
          <mxGeometry x="461.25" y="153.13" width="80" height="66.25" as="geometry" />
        </mxCell>
        <mxCell id="Z1D3lEvSjEPsLY8ttZLi-8" style="edgeStyle=orthogonalEdgeStyle;rounded=0;orthogonalLoop=1;jettySize=auto;html=1;entryX=0;entryY=0.5;entryDx=0;entryDy=0;" parent="1" source="Z1D3lEvSjEPsLY8ttZLi-2" target="Z1D3lEvSjEPsLY8ttZLi-4" edge="1">
          <mxGeometry relative="1" as="geometry" />
        </mxCell>
        <mxCell id="Z1D3lEvSjEPsLY8ttZLi-9" value="embeddings" style="edgeLabel;html=1;align=center;verticalAlign=middle;resizable=0;points=[];" parent="Z1D3lEvSjEPsLY8ttZLi-8" vertex="1" connectable="0">
          <mxGeometry x="0.0544" y="-3" relative="1" as="geometry">
            <mxPoint x="-6" y="-4" as="offset" />
          </mxGeometry>
        </mxCell>
        <mxCell id="Z1D3lEvSjEPsLY8ttZLi-2" value="" style="shape=image;verticalLabelPosition=bottom;labelBackgroundColor=default;verticalAlign=top;aspect=fixed;imageAspect=0;image=https://www.svgrepo.com/show/420629/device-embedded-embedding.svg;" parent="1" vertex="1">
          <mxGeometry x="457.5" y="142.5" width="87.5" height="87.5" as="geometry" />
        </mxCell>
        <mxCell id="Z1D3lEvSjEPsLY8ttZLi-3" value="Embedding Model" style="text;html=1;align=center;verticalAlign=middle;resizable=0;points=[];autosize=1;strokeColor=none;fillColor=none;" parent="1" vertex="1">
          <mxGeometry x="441.25" y="219.38" width="120" height="30" as="geometry" />
        </mxCell>
        <mxCell id="Z1D3lEvSjEPsLY8ttZLi-4" value="Vector&amp;nbsp;&lt;span style=&quot;background-color: transparent; color: light-dark(rgb(0, 0, 0), rgb(255, 255, 255));&quot;&gt;Store&lt;/span&gt;" style="shape=datastore;whiteSpace=wrap;html=1;" parent="1" vertex="1">
          <mxGeometry x="630" y="146.25" width="80" height="80" as="geometry" />
        </mxCell>
        <mxCell id="Z1D3lEvSjEPsLY8ttZLi-11" value="Store Embeddings" style="text;html=1;align=center;verticalAlign=middle;resizable=0;points=[];autosize=1;strokeColor=none;fillColor=none;" parent="1" vertex="1">
          <mxGeometry x="612" y="221.38" width="120" height="30" as="geometry" />
        </mxCell>
        <mxCell id="Z1D3lEvSjEPsLY8ttZLi-14" value="" style="rounded=1;whiteSpace=wrap;html=1;dashed=1;" parent="1" vertex="1">
          <mxGeometry x="499.06" y="300" width="189.38" height="116.25" as="geometry" />
        </mxCell>
        <mxCell id="Z1D3lEvSjEPsLY8ttZLi-15" value="" style="sketch=0;outlineConnect=0;fontColor=#232F3E;gradientColor=none;fillColor=#232F3D;strokeColor=none;dashed=0;verticalLabelPosition=bottom;verticalAlign=top;align=center;html=1;fontSize=12;fontStyle=0;aspect=fixed;pointerEvents=1;shape=mxgraph.aws4.documents;" parent="1" vertex="1">
          <mxGeometry x="565.99" y="311.5" width="64" height="78" as="geometry" />
        </mxCell>
        <mxCell id="Z1D3lEvSjEPsLY8ttZLi-16" value="Respective Context" style="text;html=1;align=center;verticalAlign=middle;resizable=0;points=[];autosize=1;strokeColor=none;fillColor=none;" parent="1" vertex="1">
          <mxGeometry x="532.99" y="386.25" width="130" height="30" as="geometry" />
        </mxCell>
        <mxCell id="Z1D3lEvSjEPsLY8ttZLi-19" value="&lt;b&gt;&lt;font style=&quot;font-size: 42px;&quot;&gt;+&lt;/font&gt;&lt;/b&gt;" style="text;html=1;align=center;verticalAlign=middle;resizable=0;points=[];autosize=1;strokeColor=none;fillColor=none;" parent="1" vertex="1">
          <mxGeometry x="573.99" y="245.38" width="50" height="60" as="geometry" />
        </mxCell>
        <mxCell id="ZentMIm8Z4aPlpkfc2Lt-5" value="Embedding" style="text;html=1;align=center;verticalAlign=middle;resizable=0;points=[];autosize=1;strokeColor=none;fillColor=none;" vertex="1" parent="1">
          <mxGeometry x="557.99" y="107.13" width="80" height="30" as="geometry" />
        </mxCell>
        <mxCell id="ZentMIm8Z4aPlpkfc2Lt-6" value="Store Context" style="text;html=1;align=center;verticalAlign=middle;resizable=0;points=[];autosize=1;strokeColor=none;fillColor=none;" vertex="1" parent="1">
          <mxGeometry x="548.99" y="413.25" width="100" height="30" as="geometry" />
        </mxCell>
      </root>
    </mxGraphModel>
  </diagram>
</mxfile>
